<mxfile host="app.diagrams.net" modified="2022-08-12T17:22:43.235Z" agent="5.0 (X11; Linux x86_64) AppleWebKit/537.36 (KHTML, like Gecko) Chrome/103.0.0.0 Safari/537.36" etag="nonUlD2U4HLCM_SP2Qsb" version="20.2.2" type="github">
  <diagram id="R2lEEEUBdFMjLlhIrx00" name="Page-1">
    <mxGraphModel dx="590" dy="371" grid="1" gridSize="10" guides="1" tooltips="1" connect="1" arrows="1" fold="1" page="1" pageScale="1" pageWidth="850" pageHeight="1100" math="0" shadow="0" extFonts="Permanent Marker^https://fonts.googleapis.com/css?family=Permanent+Marker">
      <root>
        <mxCell id="0" />
        <mxCell id="1" parent="0" />
        <mxCell id="C-vyLk0tnHw3VtMMgP7b-2" value="fms_diag_object" style="shape=table;startSize=30;container=1;collapsible=1;childLayout=tableLayout;fixedRows=1;rowLines=0;fontStyle=1;align=center;resizeLast=1;" parent="1" vertex="1">
          <mxGeometry x="410" width="250" height="650" as="geometry" />
        </mxCell>
        <mxCell id="C-vyLk0tnHw3VtMMgP7b-9" value="" style="shape=partialRectangle;collapsible=0;dropTarget=0;pointerEvents=0;fillColor=none;points=[[0,0.5],[1,0.5]];portConstraint=eastwest;top=0;left=0;right=0;bottom=0;" parent="C-vyLk0tnHw3VtMMgP7b-2" vertex="1">
          <mxGeometry y="30" width="250" height="200" as="geometry" />
        </mxCell>
        <mxCell id="C-vyLk0tnHw3VtMMgP7b-10" value="" style="shape=partialRectangle;overflow=hidden;connectable=0;fillColor=none;top=0;left=0;bottom=0;right=0;" parent="C-vyLk0tnHw3VtMMgP7b-9" vertex="1">
          <mxGeometry width="20" height="200" as="geometry">
            <mxRectangle width="20" height="200" as="alternateBounds" />
          </mxGeometry>
        </mxCell>
        <mxCell id="C-vyLk0tnHw3VtMMgP7b-11" value="Initialize&#xa;&#xa;Register Axis&#xa;&#xa;Register Variables&#xa;&#xa;Buffer Data&#xa;&#xa;" style="shape=partialRectangle;overflow=hidden;connectable=0;fillColor=none;top=0;left=0;bottom=0;right=0;align=center;spacingLeft=6;fontSize=20;" parent="C-vyLk0tnHw3VtMMgP7b-9" vertex="1">
          <mxGeometry x="20" width="230" height="200" as="geometry">
            <mxRectangle width="230" height="200" as="alternateBounds" />
          </mxGeometry>
        </mxCell>
        <mxCell id="BHPRVJgHFi3xMzuN6jwr-48" style="edgeStyle=orthogonalEdgeStyle;rounded=0;orthogonalLoop=1;jettySize=auto;html=1;exitX=1;exitY=0;exitDx=0;exitDy=0;entryX=1;entryY=0;entryDx=0;entryDy=0;entryPerimeter=0;fontSize=20;" edge="1" parent="1" source="BHPRVJgHFi3xMzuN6jwr-1" target="C-vyLk0tnHw3VtMMgP7b-9">
          <mxGeometry relative="1" as="geometry" />
        </mxCell>
        <mxCell id="BHPRVJgHFi3xMzuN6jwr-49" style="edgeStyle=orthogonalEdgeStyle;rounded=0;orthogonalLoop=1;jettySize=auto;html=1;exitX=1;exitY=0.25;exitDx=0;exitDy=0;entryX=0;entryY=0.25;entryDx=0;entryDy=0;fontSize=20;" edge="1" parent="1" source="BHPRVJgHFi3xMzuN6jwr-1" target="BHPRVJgHFi3xMzuN6jwr-15">
          <mxGeometry relative="1" as="geometry" />
        </mxCell>
        <mxCell id="BHPRVJgHFi3xMzuN6jwr-50" style="edgeStyle=orthogonalEdgeStyle;rounded=0;orthogonalLoop=1;jettySize=auto;html=1;exitX=1;exitY=0.25;exitDx=0;exitDy=0;entryX=0;entryY=0.25;entryDx=0;entryDy=0;fontSize=20;" edge="1" parent="1" source="BHPRVJgHFi3xMzuN6jwr-1" target="BHPRVJgHFi3xMzuN6jwr-44">
          <mxGeometry relative="1" as="geometry" />
        </mxCell>
        <mxCell id="BHPRVJgHFi3xMzuN6jwr-51" style="edgeStyle=orthogonalEdgeStyle;rounded=0;orthogonalLoop=1;jettySize=auto;html=1;exitX=1;exitY=0.25;exitDx=0;exitDy=0;entryX=0;entryY=0.25;entryDx=0;entryDy=0;fontSize=20;" edge="1" parent="1" source="BHPRVJgHFi3xMzuN6jwr-1" target="BHPRVJgHFi3xMzuN6jwr-45">
          <mxGeometry relative="1" as="geometry" />
        </mxCell>
        <mxCell id="BHPRVJgHFi3xMzuN6jwr-52" style="edgeStyle=orthogonalEdgeStyle;rounded=0;orthogonalLoop=1;jettySize=auto;html=1;exitX=1;exitY=0.25;exitDx=0;exitDy=0;entryX=0;entryY=0.25;entryDx=0;entryDy=0;fontSize=20;" edge="1" parent="1" source="BHPRVJgHFi3xMzuN6jwr-1" target="BHPRVJgHFi3xMzuN6jwr-46">
          <mxGeometry relative="1" as="geometry" />
        </mxCell>
        <mxCell id="BHPRVJgHFi3xMzuN6jwr-60" style="edgeStyle=orthogonalEdgeStyle;rounded=0;orthogonalLoop=1;jettySize=auto;html=1;exitX=1;exitY=0.25;exitDx=0;exitDy=0;entryX=0;entryY=0.25;entryDx=0;entryDy=0;fontSize=20;" edge="1" parent="1" source="BHPRVJgHFi3xMzuN6jwr-1" target="BHPRVJgHFi3xMzuN6jwr-58">
          <mxGeometry relative="1" as="geometry" />
        </mxCell>
        <mxCell id="BHPRVJgHFi3xMzuN6jwr-1" value="Initialize Objects" style="shape=process;whiteSpace=wrap;html=1;backgroundOutline=1;fontSize=20;" vertex="1" parent="1">
          <mxGeometry x="410" y="30" width="250" height="60" as="geometry" />
        </mxCell>
        <mxCell id="BHPRVJgHFi3xMzuN6jwr-55" style="edgeStyle=orthogonalEdgeStyle;rounded=0;orthogonalLoop=1;jettySize=auto;html=1;exitX=1;exitY=0.25;exitDx=0;exitDy=0;entryX=0;entryY=0.75;entryDx=0;entryDy=0;fontSize=20;" edge="1" parent="1" source="BHPRVJgHFi3xMzuN6jwr-2" target="BHPRVJgHFi3xMzuN6jwr-45">
          <mxGeometry relative="1" as="geometry">
            <Array as="points">
              <mxPoint x="720" y="105" />
              <mxPoint x="720" y="312" />
            </Array>
          </mxGeometry>
        </mxCell>
        <mxCell id="BHPRVJgHFi3xMzuN6jwr-2" value="Register Axis" style="shape=process;whiteSpace=wrap;html=1;backgroundOutline=1;fontSize=20;" vertex="1" parent="1">
          <mxGeometry x="410" y="90" width="250" height="60" as="geometry" />
        </mxCell>
        <mxCell id="BHPRVJgHFi3xMzuN6jwr-56" style="edgeStyle=orthogonalEdgeStyle;rounded=0;orthogonalLoop=1;jettySize=auto;html=1;exitX=1;exitY=0.25;exitDx=0;exitDy=0;entryX=0;entryY=0.5;entryDx=0;entryDy=0;fontSize=20;" edge="1" parent="1" source="BHPRVJgHFi3xMzuN6jwr-3" target="BHPRVJgHFi3xMzuN6jwr-44">
          <mxGeometry relative="1" as="geometry">
            <Array as="points">
              <mxPoint x="710" y="165" />
              <mxPoint x="710" y="140" />
            </Array>
          </mxGeometry>
        </mxCell>
        <mxCell id="BHPRVJgHFi3xMzuN6jwr-57" style="edgeStyle=orthogonalEdgeStyle;rounded=0;orthogonalLoop=1;jettySize=auto;html=1;exitX=1;exitY=0.25;exitDx=0;exitDy=0;entryX=0;entryY=0.75;entryDx=0;entryDy=0;fontSize=20;" edge="1" parent="1" source="BHPRVJgHFi3xMzuN6jwr-3" target="BHPRVJgHFi3xMzuN6jwr-15">
          <mxGeometry relative="1" as="geometry">
            <Array as="points">
              <mxPoint x="710" y="165" />
              <mxPoint x="710" y="70" />
            </Array>
          </mxGeometry>
        </mxCell>
        <mxCell id="BHPRVJgHFi3xMzuN6jwr-75" style="edgeStyle=orthogonalEdgeStyle;rounded=0;orthogonalLoop=1;jettySize=auto;html=1;exitX=1;exitY=0.25;exitDx=0;exitDy=0;entryX=0;entryY=0.5;entryDx=0;entryDy=0;fontSize=20;" edge="1" parent="1" source="BHPRVJgHFi3xMzuN6jwr-3" target="BHPRVJgHFi3xMzuN6jwr-45">
          <mxGeometry relative="1" as="geometry">
            <Array as="points">
              <mxPoint x="710" y="165" />
              <mxPoint x="710" y="302" />
            </Array>
          </mxGeometry>
        </mxCell>
        <mxCell id="BHPRVJgHFi3xMzuN6jwr-3" value="Register Fields" style="shape=process;whiteSpace=wrap;html=1;backgroundOutline=1;fontSize=20;" vertex="1" parent="1">
          <mxGeometry x="410" y="150" width="250" height="60" as="geometry" />
        </mxCell>
        <mxCell id="BHPRVJgHFi3xMzuN6jwr-62" style="edgeStyle=orthogonalEdgeStyle;rounded=0;orthogonalLoop=1;jettySize=auto;html=1;exitX=1;exitY=0.5;exitDx=0;exitDy=0;entryX=0;entryY=0.5;entryDx=0;entryDy=0;fontSize=20;" edge="1" parent="1" source="BHPRVJgHFi3xMzuN6jwr-4" target="BHPRVJgHFi3xMzuN6jwr-58">
          <mxGeometry relative="1" as="geometry">
            <Array as="points">
              <mxPoint x="700" y="240" />
              <mxPoint x="700" y="220" />
            </Array>
          </mxGeometry>
        </mxCell>
        <mxCell id="BHPRVJgHFi3xMzuN6jwr-63" style="edgeStyle=orthogonalEdgeStyle;rounded=0;orthogonalLoop=1;jettySize=auto;html=1;exitX=1;exitY=0.5;exitDx=0;exitDy=0;entryX=0;entryY=1;entryDx=0;entryDy=0;fontSize=20;" edge="1" parent="1" source="BHPRVJgHFi3xMzuN6jwr-4" target="BHPRVJgHFi3xMzuN6jwr-44">
          <mxGeometry relative="1" as="geometry">
            <Array as="points">
              <mxPoint x="700" y="240" />
              <mxPoint x="700" y="160" />
            </Array>
          </mxGeometry>
        </mxCell>
        <mxCell id="BHPRVJgHFi3xMzuN6jwr-4" value="Accept Data" style="shape=process;whiteSpace=wrap;html=1;backgroundOutline=1;fontSize=20;" vertex="1" parent="1">
          <mxGeometry x="410" y="210" width="250" height="60" as="geometry" />
        </mxCell>
        <mxCell id="BHPRVJgHFi3xMzuN6jwr-64" style="edgeStyle=orthogonalEdgeStyle;rounded=0;orthogonalLoop=1;jettySize=auto;html=1;exitX=1;exitY=0.25;exitDx=0;exitDy=0;entryX=0;entryY=1;entryDx=0;entryDy=0;fontSize=20;" edge="1" parent="1" source="BHPRVJgHFi3xMzuN6jwr-5" target="BHPRVJgHFi3xMzuN6jwr-15">
          <mxGeometry relative="1" as="geometry">
            <Array as="points">
              <mxPoint x="700" y="285" />
              <mxPoint x="700" y="80" />
            </Array>
          </mxGeometry>
        </mxCell>
        <mxCell id="BHPRVJgHFi3xMzuN6jwr-5" value="Write Netcdf Output" style="shape=process;whiteSpace=wrap;html=1;backgroundOutline=1;fontSize=20;" vertex="1" parent="1">
          <mxGeometry x="410" y="270" width="250" height="60" as="geometry" />
        </mxCell>
        <mxCell id="BHPRVJgHFi3xMzuN6jwr-65" style="edgeStyle=orthogonalEdgeStyle;rounded=0;orthogonalLoop=1;jettySize=auto;html=1;exitX=1;exitY=0.5;exitDx=0;exitDy=0;entryX=0;entryY=0.5;entryDx=0;entryDy=0;fontSize=20;" edge="1" parent="1" source="BHPRVJgHFi3xMzuN6jwr-6" target="BHPRVJgHFi3xMzuN6jwr-47">
          <mxGeometry relative="1" as="geometry">
            <Array as="points">
              <mxPoint x="720" y="360" />
              <mxPoint x="720" y="462" />
            </Array>
          </mxGeometry>
        </mxCell>
        <mxCell id="BHPRVJgHFi3xMzuN6jwr-6" value="Write Output Yaml" style="shape=process;whiteSpace=wrap;html=1;backgroundOutline=1;fontSize=20;" vertex="1" parent="1">
          <mxGeometry x="410" y="330" width="250" height="60" as="geometry" />
        </mxCell>
        <mxCell id="BHPRVJgHFi3xMzuN6jwr-66" style="edgeStyle=orthogonalEdgeStyle;rounded=0;orthogonalLoop=1;jettySize=auto;html=1;exitX=1;exitY=0.5;exitDx=0;exitDy=0;entryX=0;entryY=1;entryDx=0;entryDy=0;fontSize=20;" edge="1" parent="1" source="BHPRVJgHFi3xMzuN6jwr-7" target="BHPRVJgHFi3xMzuN6jwr-47">
          <mxGeometry relative="1" as="geometry">
            <Array as="points">
              <mxPoint x="690" y="420" />
              <mxPoint x="690" y="502" />
              <mxPoint x="800" y="502" />
            </Array>
          </mxGeometry>
        </mxCell>
        <mxCell id="BHPRVJgHFi3xMzuN6jwr-67" style="edgeStyle=orthogonalEdgeStyle;rounded=0;orthogonalLoop=1;jettySize=auto;html=1;exitX=1;exitY=0.5;exitDx=0;exitDy=0;entryX=0;entryY=1;entryDx=0;entryDy=0;fontSize=20;" edge="1" parent="1" source="BHPRVJgHFi3xMzuN6jwr-7" target="BHPRVJgHFi3xMzuN6jwr-46">
          <mxGeometry relative="1" as="geometry" />
        </mxCell>
        <mxCell id="BHPRVJgHFi3xMzuN6jwr-68" style="edgeStyle=orthogonalEdgeStyle;rounded=0;orthogonalLoop=1;jettySize=auto;html=1;exitX=1;exitY=0.5;exitDx=0;exitDy=0;entryX=0;entryY=1;entryDx=0;entryDy=0;fontSize=20;" edge="1" parent="1" source="BHPRVJgHFi3xMzuN6jwr-7" target="BHPRVJgHFi3xMzuN6jwr-45">
          <mxGeometry relative="1" as="geometry">
            <Array as="points">
              <mxPoint x="690" y="420" />
              <mxPoint x="690" y="322" />
            </Array>
          </mxGeometry>
        </mxCell>
        <mxCell id="BHPRVJgHFi3xMzuN6jwr-69" style="edgeStyle=orthogonalEdgeStyle;rounded=0;orthogonalLoop=1;jettySize=auto;html=1;exitX=1;exitY=0.5;exitDx=0;exitDy=0;entryX=0;entryY=1;entryDx=0;entryDy=0;fontSize=20;" edge="1" parent="1" source="BHPRVJgHFi3xMzuN6jwr-7" target="BHPRVJgHFi3xMzuN6jwr-58">
          <mxGeometry relative="1" as="geometry">
            <Array as="points">
              <mxPoint x="690" y="420" />
              <mxPoint x="690" y="240" />
            </Array>
          </mxGeometry>
        </mxCell>
        <mxCell id="BHPRVJgHFi3xMzuN6jwr-70" style="edgeStyle=orthogonalEdgeStyle;rounded=0;orthogonalLoop=1;jettySize=auto;html=1;exitX=1;exitY=0.5;exitDx=0;exitDy=0;entryX=0.25;entryY=1;entryDx=0;entryDy=0;fontSize=20;" edge="1" parent="1" source="BHPRVJgHFi3xMzuN6jwr-7" target="BHPRVJgHFi3xMzuN6jwr-44">
          <mxGeometry relative="1" as="geometry">
            <Array as="points">
              <mxPoint x="690" y="420" />
              <mxPoint x="690" y="170" />
              <mxPoint x="850" y="170" />
            </Array>
          </mxGeometry>
        </mxCell>
        <mxCell id="BHPRVJgHFi3xMzuN6jwr-71" style="edgeStyle=orthogonalEdgeStyle;rounded=0;orthogonalLoop=1;jettySize=auto;html=1;exitX=1;exitY=0.5;exitDx=0;exitDy=0;fontSize=20;" edge="1" parent="1" source="BHPRVJgHFi3xMzuN6jwr-7">
          <mxGeometry relative="1" as="geometry">
            <mxPoint x="830" y="80" as="targetPoint" />
            <Array as="points">
              <mxPoint x="690" y="420" />
              <mxPoint x="690" y="90" />
              <mxPoint x="830" y="90" />
            </Array>
          </mxGeometry>
        </mxCell>
        <mxCell id="BHPRVJgHFi3xMzuN6jwr-7" value="End" style="shape=process;whiteSpace=wrap;html=1;backgroundOutline=1;fontSize=20;" vertex="1" parent="1">
          <mxGeometry x="410" y="390" width="250" height="60" as="geometry" />
        </mxCell>
        <mxCell id="BHPRVJgHFi3xMzuN6jwr-8" value="Diag Manager (users)" style="swimlane;fontSize=20;" vertex="1" parent="1">
          <mxGeometry x="10" y="25" width="270" height="265" as="geometry" />
        </mxCell>
        <mxCell id="BHPRVJgHFi3xMzuN6jwr-9" value="Diag manager init" style="shape=process;whiteSpace=wrap;html=1;backgroundOutline=1;fontSize=20;" vertex="1" parent="BHPRVJgHFi3xMzuN6jwr-8">
          <mxGeometry y="25" width="270" height="60" as="geometry" />
        </mxCell>
        <mxCell id="BHPRVJgHFi3xMzuN6jwr-10" value="register diag field" style="shape=process;whiteSpace=wrap;html=1;backgroundOutline=1;fontSize=20;" vertex="1" parent="BHPRVJgHFi3xMzuN6jwr-8">
          <mxGeometry y="85" width="270" height="60" as="geometry" />
        </mxCell>
        <mxCell id="BHPRVJgHFi3xMzuN6jwr-11" value="Send data" style="shape=process;whiteSpace=wrap;html=1;backgroundOutline=1;fontSize=20;" vertex="1" parent="BHPRVJgHFi3xMzuN6jwr-8">
          <mxGeometry y="145" width="270" height="60" as="geometry" />
        </mxCell>
        <mxCell id="BHPRVJgHFi3xMzuN6jwr-12" value="diag manager end" style="shape=process;whiteSpace=wrap;html=1;backgroundOutline=1;fontSize=20;" vertex="1" parent="BHPRVJgHFi3xMzuN6jwr-8">
          <mxGeometry y="205" width="270" height="60" as="geometry" />
        </mxCell>
        <mxCell id="BHPRVJgHFi3xMzuN6jwr-21" value="" style="shape=umlActor;verticalLabelPosition=bottom;verticalAlign=top;html=1;outlineConnect=0;fontSize=20;" vertex="1" parent="BHPRVJgHFi3xMzuN6jwr-8">
          <mxGeometry x="240" y="25" width="30" height="60" as="geometry" />
        </mxCell>
        <mxCell id="BHPRVJgHFi3xMzuN6jwr-22" value="" style="shape=umlActor;verticalLabelPosition=bottom;verticalAlign=top;html=1;outlineConnect=0;fontSize=20;" vertex="1" parent="BHPRVJgHFi3xMzuN6jwr-8">
          <mxGeometry x="240" y="85" width="30" height="60" as="geometry" />
        </mxCell>
        <mxCell id="BHPRVJgHFi3xMzuN6jwr-28" value="" style="shape=umlActor;verticalLabelPosition=bottom;verticalAlign=top;html=1;outlineConnect=0;fontSize=20;" vertex="1" parent="BHPRVJgHFi3xMzuN6jwr-8">
          <mxGeometry x="240" y="145" width="30" height="60" as="geometry" />
        </mxCell>
        <mxCell id="BHPRVJgHFi3xMzuN6jwr-29" value="" style="shape=umlActor;verticalLabelPosition=bottom;verticalAlign=top;html=1;outlineConnect=0;fontSize=20;" vertex="1" parent="BHPRVJgHFi3xMzuN6jwr-8">
          <mxGeometry x="240" y="205" width="30" height="60" as="geometry" />
        </mxCell>
        <mxCell id="BHPRVJgHFi3xMzuN6jwr-13" value="diag axis" style="swimlane;fontSize=20;" vertex="1" parent="1">
          <mxGeometry x="10" y="320" width="270" height="90" as="geometry" />
        </mxCell>
        <mxCell id="BHPRVJgHFi3xMzuN6jwr-14" value="diag axis init" style="shape=process;whiteSpace=wrap;html=1;backgroundOutline=1;fontSize=20;" vertex="1" parent="BHPRVJgHFi3xMzuN6jwr-13">
          <mxGeometry y="25" width="270" height="60" as="geometry" />
        </mxCell>
        <mxCell id="BHPRVJgHFi3xMzuN6jwr-17" value="" style="shape=umlActor;verticalLabelPosition=bottom;verticalAlign=top;html=1;outlineConnect=0;fontSize=20;" vertex="1" parent="BHPRVJgHFi3xMzuN6jwr-13">
          <mxGeometry x="240" y="25" width="30" height="60" as="geometry" />
        </mxCell>
        <mxCell id="BHPRVJgHFi3xMzuN6jwr-15" value="fms_diag_files" style="swimlane;fontSize=20;" vertex="1" parent="1">
          <mxGeometry x="800" y="40" width="200" height="40" as="geometry" />
        </mxCell>
        <mxCell id="BHPRVJgHFi3xMzuN6jwr-35" style="edgeStyle=orthogonalEdgeStyle;rounded=0;orthogonalLoop=1;jettySize=auto;html=1;exitX=0.5;exitY=0.5;exitDx=0;exitDy=0;exitPerimeter=0;fontSize=20;" edge="1" parent="1" source="BHPRVJgHFi3xMzuN6jwr-21" target="BHPRVJgHFi3xMzuN6jwr-1">
          <mxGeometry relative="1" as="geometry" />
        </mxCell>
        <mxCell id="BHPRVJgHFi3xMzuN6jwr-36" style="edgeStyle=orthogonalEdgeStyle;rounded=0;orthogonalLoop=1;jettySize=auto;html=1;exitX=0.5;exitY=0.5;exitDx=0;exitDy=0;exitPerimeter=0;entryX=-0.013;entryY=0.762;entryDx=0;entryDy=0;entryPerimeter=0;fontSize=20;" edge="1" parent="1" source="BHPRVJgHFi3xMzuN6jwr-22" target="C-vyLk0tnHw3VtMMgP7b-9">
          <mxGeometry relative="1" as="geometry" />
        </mxCell>
        <mxCell id="BHPRVJgHFi3xMzuN6jwr-37" style="edgeStyle=orthogonalEdgeStyle;rounded=0;orthogonalLoop=1;jettySize=auto;html=1;exitX=0.5;exitY=0.5;exitDx=0;exitDy=0;exitPerimeter=0;entryX=0;entryY=0.5;entryDx=0;entryDy=0;fontSize=20;" edge="1" parent="1" source="BHPRVJgHFi3xMzuN6jwr-28" target="BHPRVJgHFi3xMzuN6jwr-4">
          <mxGeometry relative="1" as="geometry" />
        </mxCell>
        <mxCell id="BHPRVJgHFi3xMzuN6jwr-39" style="edgeStyle=orthogonalEdgeStyle;rounded=0;orthogonalLoop=1;jettySize=auto;html=1;exitX=1;exitY=0.3333333333333333;exitDx=0;exitDy=0;exitPerimeter=0;entryX=0;entryY=0.5;entryDx=0;entryDy=0;fontSize=20;" edge="1" parent="1" source="BHPRVJgHFi3xMzuN6jwr-29" target="BHPRVJgHFi3xMzuN6jwr-5">
          <mxGeometry relative="1" as="geometry">
            <Array as="points">
              <mxPoint x="280" y="260" />
              <mxPoint x="345" y="260" />
              <mxPoint x="345" y="300" />
            </Array>
          </mxGeometry>
        </mxCell>
        <mxCell id="BHPRVJgHFi3xMzuN6jwr-40" style="edgeStyle=orthogonalEdgeStyle;rounded=0;orthogonalLoop=1;jettySize=auto;html=1;exitX=1;exitY=0.5;exitDx=0;exitDy=0;entryX=0;entryY=0.5;entryDx=0;entryDy=0;fontSize=20;" edge="1" parent="1" source="BHPRVJgHFi3xMzuN6jwr-12" target="BHPRVJgHFi3xMzuN6jwr-6">
          <mxGeometry relative="1" as="geometry" />
        </mxCell>
        <mxCell id="BHPRVJgHFi3xMzuN6jwr-42" style="edgeStyle=orthogonalEdgeStyle;rounded=0;orthogonalLoop=1;jettySize=auto;html=1;exitX=0.5;exitY=0.5;exitDx=0;exitDy=0;exitPerimeter=0;entryX=0;entryY=0.5;entryDx=0;entryDy=0;fontSize=20;" edge="1" parent="1" source="BHPRVJgHFi3xMzuN6jwr-29" target="BHPRVJgHFi3xMzuN6jwr-7">
          <mxGeometry relative="1" as="geometry" />
        </mxCell>
        <mxCell id="BHPRVJgHFi3xMzuN6jwr-43" style="edgeStyle=orthogonalEdgeStyle;rounded=0;orthogonalLoop=1;jettySize=auto;html=1;exitX=1;exitY=0.5;exitDx=0;exitDy=0;entryX=0;entryY=0.5;entryDx=0;entryDy=0;fontSize=20;" edge="1" parent="1" source="BHPRVJgHFi3xMzuN6jwr-14" target="BHPRVJgHFi3xMzuN6jwr-2">
          <mxGeometry relative="1" as="geometry">
            <Array as="points">
              <mxPoint x="320" y="375" />
              <mxPoint x="320" y="120" />
            </Array>
          </mxGeometry>
        </mxCell>
        <mxCell id="BHPRVJgHFi3xMzuN6jwr-44" value="fms_diag_fields" style="swimlane;fontSize=20;startSize=23;" vertex="1" parent="1">
          <mxGeometry x="800" y="120" width="200" height="40" as="geometry" />
        </mxCell>
        <mxCell id="BHPRVJgHFi3xMzuN6jwr-45" value="fms_diag_axis" style="swimlane;fontSize=20;" vertex="1" parent="1">
          <mxGeometry x="800" y="282" width="200" height="40" as="geometry" />
        </mxCell>
        <mxCell id="BHPRVJgHFi3xMzuN6jwr-53" style="edgeStyle=orthogonalEdgeStyle;rounded=0;orthogonalLoop=1;jettySize=auto;html=1;exitX=0;exitY=0.25;exitDx=0;exitDy=0;entryX=0;entryY=0.5;entryDx=0;entryDy=0;fontSize=20;" edge="1" parent="1" source="BHPRVJgHFi3xMzuN6jwr-46" target="BHPRVJgHFi3xMzuN6jwr-15">
          <mxGeometry relative="1" as="geometry" />
        </mxCell>
        <mxCell id="BHPRVJgHFi3xMzuN6jwr-54" style="edgeStyle=orthogonalEdgeStyle;rounded=0;orthogonalLoop=1;jettySize=auto;html=1;exitX=0;exitY=0.25;exitDx=0;exitDy=0;entryX=0;entryY=0.75;entryDx=0;entryDy=0;fontSize=20;" edge="1" parent="1" source="BHPRVJgHFi3xMzuN6jwr-46" target="BHPRVJgHFi3xMzuN6jwr-44">
          <mxGeometry relative="1" as="geometry" />
        </mxCell>
        <mxCell id="BHPRVJgHFi3xMzuN6jwr-46" value="fms_diag_yaml" style="swimlane;fontSize=20;" vertex="1" parent="1">
          <mxGeometry x="800" y="362" width="200" height="40" as="geometry" />
        </mxCell>
        <mxCell id="BHPRVJgHFi3xMzuN6jwr-47" value="fms_diag_output_yaml" style="swimlane;fontSize=20;" vertex="1" parent="1">
          <mxGeometry x="800" y="442" width="200" height="40" as="geometry" />
        </mxCell>
        <mxCell id="BHPRVJgHFi3xMzuN6jwr-58" value="fms_diag_buffers" style="swimlane;fontSize=20;startSize=23;" vertex="1" parent="1">
          <mxGeometry x="800" y="200" width="200" height="40" as="geometry" />
        </mxCell>
        <mxCell id="BHPRVJgHFi3xMzuN6jwr-74" style="edgeStyle=orthogonalEdgeStyle;rounded=0;orthogonalLoop=1;jettySize=auto;html=1;exitX=1;exitY=0.5;exitDx=0;exitDy=0;entryX=0;entryY=0.5;entryDx=0;entryDy=0;fontSize=20;" edge="1" parent="1" source="BHPRVJgHFi3xMzuN6jwr-72" target="BHPRVJgHFi3xMzuN6jwr-73">
          <mxGeometry relative="1" as="geometry" />
        </mxCell>
        <mxCell id="BHPRVJgHFi3xMzuN6jwr-72" value="Errors/messages" style="shape=process;whiteSpace=wrap;html=1;backgroundOutline=1;fontSize=20;" vertex="1" parent="1">
          <mxGeometry x="410" y="590" width="250" height="60" as="geometry" />
        </mxCell>
        <mxCell id="BHPRVJgHFi3xMzuN6jwr-73" value="mpp" style="swimlane;fontSize=20;" vertex="1" parent="1">
          <mxGeometry x="800" y="600" width="200" height="40" as="geometry" />
        </mxCell>
      </root>
    </mxGraphModel>
  </diagram>
</mxfile>
